<svg xmlns="http://www.w3.org/2000/svg" width="100" height="100" viewBox="0 0 24 24" fill="#ffffff" opacity="0.03">
    <path d="M12 2c5.514 0 10 4.486 10 10s-4.486 10-10 10-10-4.486-10-10 4.486-10 10-10zm0-2c-6.627 0-12 5.373-12 12s5.373 12 12 12 12-5.373 12-12-5.373-12-12-12zm-1.229 14.142v-2.323c-1.396-.438-2.334-1.248-2.334-2.231 0-.943.848-1.717 2.188-2.14v-2.311c-2.832.442-4.188 1.735-4.188 3.391 0 1.742 1.633 3.148 4.334 3.614zm2.458-6.465c1.339-.423 2.188-1.197 2.188-2.14 0-.983-.938-1.793-2.334-2.231v-2.323c2.701.466 4.334 1.872 4.334 3.614 0 1.656-1.356 2.949-4.188 3.391v-2.311z"/>
</svg>